<svg width="140" height="25" viewBox="0 0 140 25" fill="none" xmlns="http://www.w3.org/2000/svg">
<path fill-rule="evenodd" clip-rule="evenodd" d="M0 10.8665L7.21456 14.8937V24.0984L0 20.0712V10.8665ZM10.1609 0L19.0709 5.00339L10.1609 10.0068L1.25083 5.00339L10.1609 0ZM10.0319 10.5513C11.5129 10.5513 12.7143 11.724 12.7143 13.1695C12.7143 14.615 11.5129 15.7876 10.0319 15.7876C8.55094 15.7876 7.34952 14.615 7.34952 13.1695C7.34952 11.724 8.55094 10.5513 10.0319 10.5513ZM9.139 11.1053C8.66783 11.1053 8.28583 11.4793 8.28583 11.938C8.28583 12.3967 8.66903 12.7708 9.139 12.7708C9.60896 12.7708 9.99217 12.3967 9.99217 11.938C9.99217 11.4793 9.61137 11.1053 9.139 11.1053ZM20.3555 10.8665L13.1409 14.8937V24.0984L20.3555 20.0712V10.8665Z" fill="white"/>
<path d="M41.252 16.838L42.6643 17.0591L41.669 21.2521H27.0796L27.2796 20.17L29.5728 19.322V6.11492L27.2049 5.21751L27.4447 4.23424H39.5023L41.24 4.07428L41.7184 8.39079L40.1807 8.68601L38.9709 6.07846L33.3783 5.31631V12.1416C34.5291 11.944 35.6209 11.8052 36.6548 11.724L37.473 9.64575L38.6443 9.89157L38.4178 15.683L37.2224 15.4736L36.6416 13.5306C35.3486 13.4565 34.2604 13.3295 33.3795 13.1495V20.036L39.7156 19.2244L41.2532 16.8392L41.252 16.838Z" fill="white"/>
<path d="M58.1731 20.0971L58.0092 20.8475C57.7152 20.9792 57.2091 21.1298 56.4909 21.3015C55.7739 21.4744 55.1702 21.5602 54.6833 21.5602C54.4062 21.1262 54.129 20.751 53.8518 20.4358C53.5747 20.1206 53.2638 19.8513 52.9204 19.6302C52.4323 20.2124 51.8479 20.6793 51.1682 21.0321C50.4874 21.385 49.7439 21.5602 48.9377 21.5602C48.0641 21.5602 47.2531 21.3638 46.5071 20.971C45.7588 20.5781 45.1527 19.9548 44.6863 19.1021C44.22 18.2493 43.9862 17.172 43.9862 15.8676C43.9862 14.6715 44.2079 13.5706 44.655 12.5661C45.0997 11.5629 45.7383 10.7607 46.5698 10.1621C47.4013 9.5634 48.3665 9.26465 49.4667 9.26465C50.4826 9.26465 51.4755 9.65749 52.4407 10.4455V5.55151L50.6139 4.45651L50.7272 3.89077L55.9932 3.15332V18.8445C56.1776 19.1632 56.4945 19.4326 56.9391 19.6502C57.3838 19.8677 57.7959 20.0171 58.1743 20.0994L58.1731 20.0971ZM50.1849 19.5431C50.5368 19.5431 50.9345 19.5031 51.3767 19.4208C51.8165 19.3385 52.172 19.2361 52.4407 19.1126V12.2392C52.1045 11.911 51.6755 11.6593 51.1562 11.4829C50.6344 11.3065 50.0982 11.2183 49.5438 11.2183C49.1727 11.2183 48.8702 11.2594 48.6364 11.3418C48.4015 11.4229 48.2195 11.5911 48.0954 11.8463C47.7435 12.5273 47.5664 13.473 47.5664 14.6868C47.5664 15.5724 47.6977 16.3757 47.9628 17.0967C48.2279 17.8189 48.587 18.4246 49.0413 18.9174C49.1992 19.1056 49.3812 19.2573 49.5824 19.3714C49.7824 19.4867 49.9849 19.5431 50.1861 19.5431H50.1849Z" fill="white"/>
<path d="M58.7648 9.57163H63.9802V16.4816C63.9802 17.3261 64.0417 17.9541 64.1634 18.3634C64.2839 18.7739 64.4598 19.0856 64.6864 19.2985C64.7792 19.3796 64.8732 19.4396 64.9696 19.4761C65.0648 19.5125 65.1805 19.5314 65.3154 19.5314C65.7601 19.5314 66.2566 19.4949 66.8024 19.4208C67.3483 19.3467 67.7978 19.2479 68.1497 19.1256V11.6734L66.3349 10.6278L66.5373 9.57045H71.7033V18.8421C71.8877 19.1703 72.2094 19.4443 72.6662 19.6654C73.1253 19.8866 73.5302 20.03 73.882 20.0959L73.6928 20.8463C73.3482 21.011 72.8614 21.1697 72.2323 21.3262C71.6021 21.4814 70.9851 21.5591 70.3802 21.5591C70.2537 21.2885 70.0151 20.9392 69.668 20.5076C69.3186 20.0771 68.9679 19.7678 68.616 19.5796C68.0701 20.1535 67.4363 20.6264 66.7121 20.9992C65.9902 21.372 65.2395 21.5579 64.4574 21.5579C61.7702 21.5579 60.4254 20.0947 60.4254 17.1684V11.6711L58.5359 10.6019L58.7624 9.56927L58.7648 9.57163Z" fill="white"/>
<path d="M79.3626 11.4899C79.018 11.9321 78.7673 12.4426 78.6131 13.0213C78.4576 13.5999 78.3793 14.1704 78.3793 14.7373C78.3793 15.41 78.4576 16.0181 78.6131 16.5627C78.7685 17.1084 79.0143 17.6189 79.3505 18.094C80.0398 19.0609 80.8797 19.5443 81.8703 19.5443C82.3246 19.5443 82.9271 19.4772 83.6778 19.342C84.4298 19.2067 84.9347 19.0985 85.1962 19.0162L85.436 19.409C85.1673 19.7536 84.8057 20.0923 84.3514 20.424C83.8996 20.7569 83.3669 21.0286 82.7584 21.2426C82.1498 21.4555 81.5088 21.5614 80.8376 21.5614C79.5952 21.5614 78.5251 21.3156 77.6297 20.8239C76.7356 20.3323 76.0536 19.6348 75.5836 18.7327C75.1124 17.8318 74.8774 16.7779 74.8774 15.5724C74.8774 14.2939 75.1751 13.1789 75.7716 12.2285C76.3681 11.277 77.1706 10.549 78.1792 10.0456C79.1855 9.54101 80.2905 9.28931 81.4919 9.28931C81.9884 9.28931 82.4415 9.32694 82.8536 9.39987C83.2633 9.47396 83.6598 9.59276 84.0369 9.75624C84.3731 9.91149 84.6672 10.1067 84.9202 10.3408C85.1721 10.5748 85.2974 10.7854 85.2974 10.9736C85.2974 11.2194 85.1624 11.5134 84.8937 11.8533C84.6262 12.1932 84.3165 12.4885 83.9682 12.739C83.6188 12.9883 83.344 13.1142 83.1428 13.1142C82.9584 13.1142 82.7391 13.0424 82.4873 12.8989C82.2354 12.7555 82.0305 12.5931 81.8703 12.4132L81.416 10.3114C80.5749 10.4419 79.8916 10.836 79.3626 11.4911V11.4899Z" fill="white"/>
<path d="M101.6 21.2533H94.9605L95.1497 20.3311L96.2583 19.4949V14.4656C96.2583 13.7199 96.1848 13.1025 96.0378 12.6155C95.8908 12.1274 95.7172 11.7969 95.5148 11.6252C95.3798 11.5194 95.2256 11.4652 95.0484 11.4652C94.6291 11.4652 94.0639 11.5229 93.3554 11.637C92.6444 11.7511 92.084 11.8746 91.6731 12.0063V19.5937L93.4373 20.417L93.2349 21.2533H86.23L86.4071 20.3194L88.1207 19.5196V5.55034L86.3059 4.46827L86.4192 3.89077L91.6719 3.15332V11.1583C93.3614 9.90448 94.8689 9.27641 96.1956 9.27641C97.2199 9.27641 98.0791 9.60221 98.772 10.2538C99.4637 10.9054 99.8119 12.031 99.8119 13.6294V19.5937L101.801 20.3923L101.601 21.2533H101.6Z" fill="white"/>
<path d="M104.597 15.1537C105.017 14.9737 105.512 14.842 106.078 14.7608C106.645 14.6797 107.23 14.6374 107.836 14.6374C108.633 14.6374 109.314 14.682 109.876 14.7726V14.1093C109.876 12.3215 109.55 11.2147 108.896 10.789C108.751 10.6913 108.561 10.6172 108.321 10.5678C108.083 10.5184 107.833 10.4937 107.572 10.4937C107.346 10.4937 107.122 10.5231 106.904 10.5796L106.539 12.6943C106.352 12.8755 106.135 13.0354 105.883 13.1742C105.631 13.3142 105.434 13.3836 105.291 13.3836C105.089 13.3836 104.813 13.2648 104.46 13.0272C104.106 12.7896 103.793 12.5085 103.521 12.1851C103.249 11.8616 103.111 11.5723 103.111 11.3182C103.111 11.1124 103.289 10.8995 103.64 10.6784C103.995 10.4573 104.38 10.2691 104.801 10.1127C105.54 9.83391 106.389 9.62338 107.352 9.47989C108.314 9.33639 109.084 9.26465 109.664 9.26465C110.99 9.26465 111.95 9.5975 112.543 10.2609C113.135 10.9242 113.431 11.8263 113.431 12.966V18.8186C113.658 19.1373 113.95 19.402 114.307 19.6113C114.664 19.8207 115.098 19.9865 115.611 20.1089L115.447 20.8228C114.422 21.2897 113.259 21.5355 111.956 21.5602C111.721 21.1427 111.468 20.7781 111.196 20.4664C110.922 20.1547 110.596 19.876 110.219 19.6302C109.782 20.1959 109.234 20.6593 108.574 21.0192C107.915 21.3803 107.149 21.5602 106.276 21.5602C105.402 21.5602 104.735 21.3967 104.197 21.0686C103.658 20.7404 103.272 20.3264 103.037 19.8266C102.802 19.3267 102.685 18.8139 102.685 18.2893C102.685 17.5013 102.838 16.8544 103.144 16.3463C103.451 15.8382 103.936 15.4407 104.6 15.1537H104.597ZM107.382 19.7278C107.709 19.7278 108.127 19.6748 108.635 19.5678C109.143 19.4608 109.556 19.3467 109.875 19.2232V15.583C109.204 15.6818 108.617 15.7982 108.112 15.9335C107.609 16.0687 107.211 16.2063 106.921 16.3451C106.631 16.4851 106.448 16.5992 106.372 16.6898C106.255 16.845 106.195 17.1073 106.195 17.4766C106.195 17.8459 106.278 18.2435 106.441 18.6704C106.605 19.0962 106.792 19.3996 107.001 19.5808C107.094 19.6796 107.221 19.7278 107.38 19.7278H107.382Z" fill="white"/>
<path d="M118.067 11.784L116.266 10.7149L116.366 10.1127L121.618 9.38697V19.5937L123.445 20.417L123.257 21.2533H116.163L116.352 20.3064L118.066 19.5184V11.784H118.067ZM117.675 5.89495C117.643 5.70676 117.728 5.42566 117.933 5.05282C118.138 4.67997 118.389 4.33536 118.683 4.02015C118.977 3.70494 119.22 3.53087 119.414 3.49793C119.624 3.465 119.918 3.55086 120.295 3.75669C120.674 3.96134 121.018 4.20481 121.328 4.48826C121.639 4.77054 121.811 4.99871 121.845 5.17043C121.88 5.36803 121.791 5.65266 121.58 6.0255C121.369 6.39835 121.118 6.74296 120.824 7.05817C120.53 7.37338 120.29 7.54393 120.106 7.56863C119.922 7.60156 119.641 7.51687 119.263 7.31693C118.885 7.1158 118.536 6.87351 118.217 6.59124C117.897 6.30896 117.718 6.07725 117.675 5.8973V5.89495Z" fill="white"/>
<path d="M124.655 10.1115L128.912 9.38578L129.593 11.3653C131.383 9.97151 132.982 9.27405 134.394 9.27405C135.418 9.27405 136.274 9.59984 136.964 10.2514C137.651 10.903 137.996 12.0286 137.996 13.627V19.5913L140 20.3899L139.785 21.2509H133.159L133.336 20.3288L134.445 19.4925V14.4633C134.445 13.7176 134.372 13.1001 134.23 12.6132C134.088 12.1251 133.916 11.7946 133.713 11.6228C133.578 11.517 133.424 11.4629 133.247 11.4629C132.819 11.4629 132.242 11.5229 131.515 11.6405C130.787 11.7593 130.224 11.8851 129.82 12.0157C129.827 12.0568 129.845 12.1427 129.87 12.2744C129.896 12.4062 129.908 12.5367 129.908 12.6673V19.5902L131.684 20.4264L131.495 21.2509H124.453L124.642 20.2911L126.355 19.4678V11.7816L124.541 10.7125L124.654 10.1103L124.655 10.1115Z" fill="white"/>
</svg>
